<svg width="87" height="87" viewBox="0 0 87 87" fill="none" xmlns="http://www.w3.org/2000/svg">
<circle cx="43.5" cy="43.5" r="43.5" fill="#252525"/>
<circle cx="43.5001" cy="43.4998" r="37.2857" stroke="white" stroke-width="5.59286"/>
<path d="M52.1274 8.69995L47.4594 17.0757M76.6345 57.5586L20.4316 66.4928L27.6204 52.6728M35.7894 38.0152L77.6147 32.7105M35.7894 38.0152L27.6204 52.6728M35.7894 38.0152L41.6244 27.5454M35.7894 38.0152C21.0852 38.0152 15.2035 36.34 9.32178 31.8729M27.6204 52.6728L78.9218 44.7158M47.4594 17.0757C41.1476 11.3369 36.896 9.94334 27.6204 11.4919C23.7821 13.2457 19.4748 15.3794 16.8373 20.1468C22.0157 26.0244 29.6912 27.4701 41.6244 27.5454M47.4594 17.0757L41.6244 27.5454" stroke="white" stroke-width="5.59286"/>
</svg>
